<?xml version="1.0" encoding="UTF-8"?>
<svg width="30px" height="63px" viewBox="0 0 30 63" version="1.1" xmlns="http://www.w3.org/2000/svg" xmlns:xlink="http://www.w3.org/1999/xlink">
    <!-- Generator: Sketch 44.1 (41455) - http://www.bohemiancoding.com/sketch -->
    <title>github</title>
    <desc>Created with Sketch.</desc>
    <defs></defs>
    <g id="Page-1" stroke="none" stroke-width="1" fill="none" fill-rule="evenodd">
        <g id="github">
            <path d="M15,33.375 C6.703125,33.375 0,40.078125 0,48.375 C0,54.984375 4.3125,60.609375 10.265625,62.625 C11.015625,62.765625 11.296875,62.296875 11.296875,61.921875 C11.296875,61.546875 11.296875,60.609375 11.296875,59.390625 C7.125,60.28125 6.234375,57.375 6.234375,57.375 C5.53125,55.640625 4.546875,55.171875 4.546875,55.171875 C3.1875,54.234375 4.640625,54.28125 4.640625,54.28125 C6.140625,54.375 6.9375,55.828125 6.9375,55.828125 C8.296875,58.125 10.453125,57.46875 11.296875,57.09375 C11.4375,56.109375 11.8125,55.453125 12.234375,55.078125 C8.90625,54.703125 5.390625,53.390625 5.390625,47.671875 C5.390625,46.03125 5.953125,44.71875 6.9375,43.640625 C6.796875,43.265625 6.28125,41.71875 7.078125,39.65625 C7.078125,39.65625 8.34375,39.234375 11.203125,41.203125 C12.421875,40.875 13.6875,40.6875 14.953125,40.6875 C16.21875,40.6875 17.53125,40.875 18.703125,41.203125 C21.5625,39.28125 22.828125,39.65625 22.828125,39.65625 C23.625,41.71875 23.109375,43.265625 22.96875,43.640625 C23.953125,44.671875 24.515625,46.03125 24.515625,47.671875 C24.515625,53.4375 21,54.703125 17.671875,55.078125 C18.1875,55.546875 18.703125,56.4375 18.703125,57.84375 C18.703125,59.859375 18.703125,61.453125 18.703125,61.96875 C18.703125,62.390625 18.984375,62.859375 19.734375,62.671875 C25.6875,60.609375 30,54.984375 30,48.375 C30,40.078125 23.296875,33.375 15,33.375 Z" id="Shape" fill="#DA4843"></path>
            <path d="M15,0.375 C6.703125,0.375 0,7.078125 0,15.375 C0,21.984375 4.3125,27.609375 10.265625,29.625 C11.015625,29.765625 11.296875,29.296875 11.296875,28.921875 C11.296875,28.546875 11.296875,27.609375 11.296875,26.390625 C7.125,27.28125 6.234375,24.375 6.234375,24.375 C5.53125,22.640625 4.546875,22.171875 4.546875,22.171875 C3.1875,21.234375 4.640625,21.28125 4.640625,21.28125 C6.140625,21.375 6.9375,22.828125 6.9375,22.828125 C8.296875,25.125 10.453125,24.46875 11.296875,24.09375 C11.4375,23.109375 11.8125,22.453125 12.234375,22.078125 C8.90625,21.703125 5.390625,20.390625 5.390625,14.671875 C5.390625,13.03125 5.953125,11.71875 6.9375,10.640625 C6.796875,10.265625 6.28125,8.71875 7.078125,6.65625 C7.078125,6.65625 8.34375,6.234375 11.203125,8.203125 C12.421875,7.875 13.6875,7.6875 14.953125,7.6875 C16.21875,7.6875 17.53125,7.875 18.703125,8.203125 C21.5625,6.28125 22.828125,6.65625 22.828125,6.65625 C23.625,8.71875 23.109375,10.265625 22.96875,10.640625 C23.953125,11.671875 24.515625,13.03125 24.515625,14.671875 C24.515625,20.4375 21,21.703125 17.671875,22.078125 C18.1875,22.546875 18.703125,23.4375 18.703125,24.84375 C18.703125,26.859375 18.703125,28.453125 18.703125,28.96875 C18.703125,29.390625 18.984375,29.859375 19.734375,29.671875 C25.6875,27.609375 30,21.984375 30,15.375 C30,7.078125 23.296875,0.375 15,0.375 Z" id="Shape" fill="#624B86"></path>
        </g>
    </g>
</svg>